# xmcd
#
# Track frame offsets:
#	182
#	12540
#	24200
#	35067
#	47157
#	59597
#	71307
#	82080
#	89682
#	101782
#	116022
#
# Disc length: 1678 seconds
#
# Revision: 1
# Processed by: cddbd v1.5.1PL0 Copyright (c) Steve Scherf et al.
# Submitted via: audiograbber 1.80.04
#
DISCID=98068c0b
DTITLE=Charlie Rich - A Time For Tears
DYEAR=1970
DGENRE=Country
TTITLE0=Gentle As A Lamb
TTITLE1=The Wedding's Over
TTITLE2=You're Gonna Be Waiting
TTITLE3=Midnight Blues
TTITLE4=My Heart Cries For You
TTITLE5=Goodbye Mary Ann
TTITLE6=Finally Found Out
TTITLE7=Baby I Need You
TTITLE8=It's Too Late
TTITLE9=I've Lost My Heart To You
TTITLE10=My Baby Done Left Me
EXTD=
EXTT0=
EXTT1=
EXTT2=
EXTT3=
EXTT4=
EXTT5=
EXTT6=
EXTT7=
EXTT8=
EXTT9=
EXTT10=
PLAYORDER=
